<?xml version="1.0" encoding="UTF-8" standalone="no"?>
<!-- Created with Inkscape (http://www.inkscape.org/) -->

<svg
   width="210mm"
   height="297mm"
   viewBox="0 0 210 297"
   version="1.1"
   id="svg1"
   inkscape:version="1.3.2 (091e20e, 2023-11-25, custom)"
   sodipodi:docname="2D Character.svg"
   xmlns:inkscape="http://www.inkscape.org/namespaces/inkscape"
   xmlns:sodipodi="http://sodipodi.sourceforge.net/DTD/sodipodi-0.dtd"
   xmlns="http://www.w3.org/2000/svg"
   xmlns:svg="http://www.w3.org/2000/svg">
  <sodipodi:namedview
     id="namedview1"
     pagecolor="#ffffff"
     bordercolor="#000000"
     borderopacity="0.25"
     inkscape:showpageshadow="2"
     inkscape:pageopacity="0.0"
     inkscape:pagecheckerboard="0"
     inkscape:deskcolor="#d1d1d1"
     inkscape:document-units="mm"
     inkscape:zoom="0.55856481"
     inkscape:cx="-13.427269"
     inkscape:cy="632.87194"
     inkscape:window-width="1440"
     inkscape:window-height="847"
     inkscape:window-x="-8"
     inkscape:window-y="-8"
     inkscape:window-maximized="1"
     inkscape:current-layer="layer1" />
  <defs
     id="defs1">
    <linearGradient
       id="swatch56"
       inkscape:swatch="solid">
      <stop
         style="stop-color:#000000;stop-opacity:1;"
         offset="0"
         id="stop56" />
    </linearGradient>
    <inkscape:path-effect
       effect="bend_path"
       id="path-effect56"
       is_visible="true"
       lpeversion="1"
       bendpath="m 157.75924,123.59482 c 2.00968,-2.34462 9.71342,8.03869 9.71342,8.03869 l -18.08705,6.69891 z"
       prop_scale="1"
       scale_y_rel="false"
       vertical="false"
       hide_knot="false" />
    <inkscape:path-effect
       effect="bend_path"
       id="path-effect55"
       is_visible="true"
       lpeversion="1"
       bendpath="m 173.16673,144.36143 14.40265,1.67473 -8.70858,30.14508 z"
       prop_scale="1"
       scale_y_rel="false"
       vertical="false"
       hide_knot="false" />
    <inkscape:path-effect
       effect="bend_path"
       id="path-effect54"
       is_visible="true"
       lpeversion="1"
       bendpath="m 169.48233,141.01198 c 0,-2.00967 -0.66989,-16.07738 -0.66989,-16.07738 l 20.43166,-1.67472 -1.67472,10.71825 z"
       prop_scale="0.67182213"
       scale_y_rel="false"
       vertical="false"
       hide_knot="false" />
    <inkscape:path-effect
       effect="skeletal"
       id="path-effect53"
       is_visible="true"
       lpeversion="1"
       pattern="m 97.756577,118.53947 v 2.36842 l -9.296051,1.06579 z"
       copytype="single_stretched"
       prop_scale="14.072559"
       scale_y_rel="false"
       spacing="0"
       normal_offset="0"
       tang_offset="0"
       prop_units="false"
       vertical_pattern="false"
       hide_knot="false"
       fuse_tolerance="0" />
    <linearGradient
       id="swatch7"
       inkscape:swatch="solid">
      <stop
         style="stop-color:#000000;stop-opacity:1;"
         offset="0"
         id="stop7" />
    </linearGradient>
    <linearGradient
       id="swatch6"
       inkscape:swatch="solid">
      <stop
         style="stop-color:#000000;stop-opacity:1;"
         offset="0"
         id="stop6" />
    </linearGradient>
  </defs>
  <g
     inkscape:label="Layer 1"
     inkscape:groupmode="layer"
     id="layer1">
    <g
       id="g120">
      <path
         style="display:inline;fill:#000000;fill-opacity:1;stroke:none;stroke-width:1.606;stroke-dasharray:none;stroke-opacity:1"
         d="m 84.662637,118.82482 c -0.213621,4.14917 1.736609,10.8137 3.061094,14.31059 4.470787,6.05648 7.821589,8.35507 11.868374,11.10143 3.072135,1.0384 8.365365,1.84467 9.947375,-0.22203 3.09375,-2.98854 4.45558,-4.65999 8.54111,-7.8965 l 3.9523,-9.16922 c 1.99812,-2.1362 6.19733,-4.91536 6.56698,-5.99988 0.79831,-7.70992 -2.48228,-6.89591 -5.91566,-6.03023 l 0.71053,-4.45894 L 108,109.99067 93.789472,109.756 h -8.526314 z"
         id="path1"
         sodipodi:nodetypes="ccccccccccccc"
         inkscape:label="face 2" />
      <path
         style="fill:#deaa87;fill-opacity:1;stroke:none;stroke-width:1.606;stroke-dasharray:none;stroke-opacity:1"
         d="m 84.980102,119.39866 c -0.203886,3.99008 1.496816,9.69947 3.606676,14.43049 3.91063,5.22528 6.002948,6.58482 10.812945,9.66234 1.848837,1.44376 7.233427,1.31745 8.791067,0.86434 3.7291,-3.05432 5.07599,-4.85084 9.60136,-8.51676 1.1573,-2.55786 2.48888,-4.61747 3.55086,-8.82009 2.08469,-2.02469 6.50701,-5.30885 6.85981,-6.35179 0.91844,-6.83152 -2.34547,-6.25849 -5.97618,-5.44378 l 0.74095,-4.32985 c -4.47794,-0.26614 -9.85216,-0.29602 -15.07717,-0.45137 -4.43821,-0.15215 -9.046782,-0.48242 -13.681327,-0.35129 l -8.558568,6.2e-4 z"
         id="path11"
         sodipodi:nodetypes="ccccccccccccc"
         inkscape:label="face" />
      <path
         style="fill:#ffffff;fill-opacity:1;stroke:#000000;stroke-width:0.306;stroke-dasharray:none;stroke-opacity:1"
         d="m 85.159846,113.04404 c -0.883943,-0.669 -1.721607,-2.03218 -2.7633,-0.33494 l -0.146536,4.79391 2.491154,4.58456 z"
         id="path12"
         sodipodi:nodetypes="ccccc"
         inkscape:label="path12" />
      <path
         style="fill:#000000;fill-opacity:1;stroke:#000000;stroke-width:0.306001;stroke-dasharray:none;stroke-opacity:1"
         d="m 84.907894,121.79605 4.938999,-11.37611 5.128533,5.24942 0.700368,-5.66985 8.242166,4.38086 2.04261,-4.02138 8.45448,6.14947 0.0803,-5.91612 c 2.93088,3.88185 2.4277,4.97646 3.90544,6.68904 l 0.49399,-9.75507 0.94737,16.46053 2.62228,-9.01686 6.19649,-3.81 -1.08857,-1.80033 1.46538,-5.56847 -4.52176,0.96297 0.65513,-6.346257 -5.80263,2.131577 -1.06579,-9.118418 -5.80263,6.513158 -11.48684,-8.407895 0.23684,7.815789 -14.210527,-4.263157 4.026315,5.921052 h -14.80263 l 7.934208,4.736841 -9.355262,4.26316 9.947368,-0.23684 -5.092105,1.89473 4.144738,2.36842 1.302631,0.59211 z"
         id="path13"
         sodipodi:nodetypes="cccccccccccccccccccccccccccccccc"
         inkscape:label="hair" />
      <path
         style="fill:none;fill-opacity:1;stroke:#000000;stroke-width:0.3;stroke-dasharray:none;stroke-dashoffset:0;stroke-opacity:1"
         d="m 96.464251,142.10055 0.251209,13.39781 17.24968,0.33495 0.0837,-16.5798 -5.44286,5.35913 -5.5266,0.41868 -3.768133,-1.33978 z"
         id="path30" />
      <path
         style="fill:#000080;fill-opacity:1;stroke:#000000;stroke-width:0.3;stroke-dasharray:none;stroke-dashoffset:0;stroke-opacity:1"
         d="m 96.947665,149.48594 -19.145038,3.20498 -12.39648,10.01322 -8.151559,8.66504 14.56119,17.08801 1.76135,1.60963 7.079522,-7.17229 -5.083501,42.44101 63.212241,-1.03012 -6.40964,-42.44102 11.0511,7.62291 0.14699,-0.26987 12.45125,-17.44823 -8.84087,-10.0952 -14.14541,-9.47711 -19.89196,-2.88434 z"
         id="path31"
         sodipodi:nodetypes="ccccccccccccccccc" />
      <path
         style="fill:#000000;fill-opacity:1;stroke:#000000;stroke-width:0.3;stroke-dasharray:none;stroke-dashoffset:0;stroke-opacity:1"
         d="m 75.671051,225.11842 -2.25,40.61841 32.092109,0.47369 1.42105,-22.5 0.47368,22.38158 33.39474,0.23684 -2.01316,-42.27631 z"
         id="path32"
         sodipodi:nodetypes="cccccccc" />
      <path
         style="fill:#000000;fill-opacity:1;stroke:#000000;stroke-width:0.3;stroke-dasharray:none;stroke-dashoffset:0;stroke-opacity:1"
         d="m 88.425564,224.83204 -13.732759,15.32375 0.08374,-0.75363 13.062868,-14.57012 z"
         id="path33" />
      <rect
         style="fill:#1a1a1a;fill-opacity:1;stroke:#000000;stroke-width:0.3;stroke-dasharray:none;stroke-dashoffset:0;stroke-opacity:1"
         id="rect33"
         width="63.947369"
         height="3.0789473"
         x="75.434212"
         y="223.98967" />
      <rect
         style="fill:#ffffff;fill-opacity:1;stroke:#000000;stroke-width:0.319817;stroke-dasharray:none;stroke-dashoffset:0;stroke-opacity:1"
         id="rect34"
         width="13.925529"
         height="1.3354853"
         x="-276.11908"
         y="218.68588"
         transform="matrix(0.42408207,-0.90562376,0.99836529,-0.05715549,0,0)" />
      <rect
         style="fill:#ffffff;fill-opacity:1;stroke:#000000;stroke-width:0.319817;stroke-dasharray:none;stroke-dashoffset:0;stroke-opacity:1"
         id="rect35"
         width="13.925529"
         height="1.3354853"
         x="263.90338"
         y="-34.812656"
         transform="matrix(0.31954723,0.94757035,-0.68193869,0.73140934,0,0)" />
      <ellipse
         style="fill:#ffffff;fill-opacity:1;stroke:#000000;stroke-width:0.3;stroke-dasharray:none;stroke-dashoffset:0;stroke-opacity:1"
         id="path35"
         cx="107.6818"
         cy="225.74013"
         rx="2.1611841"
         ry="1.3322369" />
      <path
         style="fill:#4d4d4d;fill-opacity:1;stroke:#000000;stroke-width:0.3;stroke-dasharray:none;stroke-dashoffset:0;stroke-opacity:1"
         d="m 88.090617,226.92545 -13.314076,12.89539 -0.167474,1.67473 15.240013,-14.65386 z"
         id="path36" />
      <path
         style="fill:#4d4d4d;fill-opacity:1;stroke:#000000;stroke-width:0.3;stroke-dasharray:none;stroke-dashoffset:0;stroke-opacity:1"
         d="m 139.3872,240.79361 -12.42658,-13.75266 -1.66793,-0.22538 14.1173,15.73835 z"
         id="path37" />
      <path
         style="fill:#000080;fill-opacity:1;stroke:none;stroke-width:0.3;stroke-dasharray:none;stroke-dashoffset:0;stroke-opacity:1"
         d="m 96.513356,149.74342 -0.05941,-1.27174 17.585324,-0.26774 0.0594,1.47254 z"
         id="path38" />
      <rect
         style="fill:#c87137;fill-opacity:1;stroke:none;stroke-width:0.3;stroke-dasharray:none;stroke-dashoffset:0;stroke-opacity:1"
         id="rect38"
         width="17.028105"
         height="31.093245"
         x="82.090309"
         y="265.90677"
         ry="0.1256045"
         rx="0.1256045" />
      <rect
         style="fill:#c87137;fill-opacity:1;stroke:none;stroke-width:0.3;stroke-dasharray:none;stroke-dashoffset:0;stroke-opacity:1"
         id="rect39"
         width="17.028105"
         height="31.093245"
         x="116.19558"
         y="266.20282"
         ry="0.1256045"
         rx="0.1256045" />
      <path
         style="fill:#241c1c;fill-opacity:1;stroke:none;stroke-width:1;stroke-opacity:1;paint-order:markers stroke fill"
         d=""
         id="path61"
         transform="scale(0.26458333)" />
      <path
         style="fill:#deaa87;fill-opacity:1;stroke:none;stroke-width:1;stroke-opacity:1;paint-order:markers stroke fill"
         d="m 315.69256,450.97455 -3.63957,-6.86384 v -8.78419 c 0,-7.96521 0.12033,-8.91334 1.29059,-10.16947 1.52568,-1.63762 1.46521,-1.62932 3.64784,-0.50064 4.12307,2.13212 4.06992,1.83582 3.26314,18.19254 -0.40114,8.13261 -0.77279,14.83222 -0.82589,14.88801 -0.0531,0.0558 -1.73435,-2.9873 -3.73611,-6.76241 z"
         id="path66"
         transform="scale(0.26458333)" />
      <path
         style="fill:#deaa87;fill-opacity:1;stroke:none;stroke-width:1;stroke-opacity:1;paint-order:markers stroke fill"
         d="m 365.84659,551.33017 c -0.005,-5.23048 -0.18039,-10.15084 -0.39031,-10.93414 -0.20991,-0.7833 -0.10598,-1.42418 0.23097,-1.42418 0.33695,0 3.0049,1.53622 5.92878,3.41382 4.39505,2.82234 6.46766,3.69224 11.96229,5.02073 10.96332,2.65069 21.53005,2.66839 26.77931,0.0449 1.11139,-0.55546 6.11256,-5.04046 11.1137,-9.96665 l 9.093,-8.95672 -0.38969,8.80338 c -0.21433,4.84186 -0.38969,11.85856 -0.38969,15.59267 v 6.78929 l -21.36265,0.39578 c -11.74946,0.21768 -26.13365,0.47124 -31.96486,0.56346 l -10.60221,0.16767 z"
         id="path67"
         transform="scale(0.26458333)" />
      <path
         style="fill:#deaa87;fill-opacity:1;stroke:none;stroke-width:0.264583;stroke-opacity:1;paint-order:markers stroke fill"
         d="m 139.60071,236.77814 c -0.0787,-2.57008 -0.1949,-5.25906 -0.25816,-5.97551 l -0.11501,-1.30263 8.71989,-11.08306 c 4.79594,-6.09568 8.71989,-11.18331 8.71989,-11.30585 0,-0.12254 -2.77479,-4.4994 -6.1662,-9.72636 -3.39141,-5.22696 -6.13793,-9.32914 -6.10337,-9.42298 0.0346,-0.0939 2.26792,-3.40916 4.91321,-7.03579 l 4.64103,-6.36275 0.76893,0.87866 c 4.46725,5.1047 8.85233,12.47145 14.61832,25.46115 l 2.65533,5.98196 -0.71028,1.24172 c -2.45144,4.2857 -7.87746,10.19389 -22.36559,24.35308 -4.20336,4.10792 -7.98726,7.80697 -8.40866,8.2201 l -0.7662,0.75114 z"
         id="path68"
         sodipodi:nodetypes="sscssssscsscssscs" />
      <path
         style="fill:#deaa87;fill-opacity:1;stroke:none;stroke-width:0.264583;stroke-opacity:1;paint-order:markers stroke fill"
         d="M 72.997321,235.14375 C 71.658344,233.72738 67.609913,229.5413 64.000809,225.84136 52.696512,214.25255 45.603254,206.14238 43.924606,202.88698 l -0.533219,-1.03408 0.878866,-1.80803 c 5.080637,-10.45202 9.850155,-18.27471 13.813991,-22.65691 1.714224,-1.89515 1.726136,-2.02811 2.139889,-1.86944 1.738442,0.66667 11.541196,12.60602 11.54678,13.26987 l 8.75e-4,0.10404 -6.26373,6.5907 c -4.152886,4.36967 -7.101092,8.43277 -7.101092,8.53496 0,0.1022 2.920484,3.90572 6.489962,8.45228 3.569478,4.54656 7.589766,9.66989 8.933975,11.38517 l 1.555856,2.76345 -0.269788,5.82999 c -0.133388,2.88246 -0.147128,4.76552 -0.421547,4.72105 -0.09866,-0.016 -0.359127,-0.6099 -1.698103,-2.02628 z"
         id="path69"
         sodipodi:nodetypes="ssscsssscsssscsss" />
      <path
         style="fill:#deaa87;fill-opacity:1;stroke:none;stroke-width:1;stroke-opacity:1;paint-order:markers stroke fill"
         d="m 310.61749,1063.8873 v -58.1849 h 31.77787 31.77787 v 58.1849 58.1848 h -31.77787 -31.77787 z"
         id="path70"
         transform="scale(0.26458333)" />
      <path
         style="fill:#deaa87;fill-opacity:1;stroke:none;stroke-width:1;stroke-opacity:1;paint-order:markers stroke fill"
         d="m 439.51927,1064.7824 v -58.1848 h 31.77787 31.77787 v 58.1848 58.1849 h -31.77787 -31.77787 z"
         id="path71"
         transform="scale(0.26458333)" />
      <path
         style="fill:#deaa87;fill-opacity:1;stroke:none;stroke-width:0.264583;stroke-opacity:1;paint-order:markers stroke fill"
         id="path72"
         sodipodi:type="arc"
         sodipodi:cx="103.11513"
         sodipodi:cy="135.38487"
         sodipodi:rx="2.7532895"
         sodipodi:ry="2.2203946"
         sodipodi:start="0"
         sodipodi:end="0.033953755"
         sodipodi:arc-type="slice"
         d="m 105.86842,135.38487 a 2.7532895,2.2203946 0 0 1 -0.002,0.0754 l -2.7517,-0.0754 z" />
      <path
         style="fill:#000000;fill-opacity:1;stroke:none;stroke-width:0.865;stroke-dasharray:none;stroke-opacity:1;paint-order:markers stroke fill"
         d="m 101.15349,122.33878 -0.58616,8.95978 4.68923,0.16748 -3.18198,-1.42352 z"
         id="path103" />
      <path
         style="fill:none;fill-opacity:1;stroke:#000000;stroke-width:0.465;stroke-dasharray:none;stroke-opacity:1;paint-order:markers stroke fill"
         d="m 96.631722,134.89922 c 3.386858,3.09563 5.853798,3.52291 7.829348,4.77298 2.91435,-1.63106 5.99163,-2.795 7.82934,-4.85671 -4.11232,-0.0382 -9.32845,0.23277 -15.658688,0.0837 z"
         id="path104"
         sodipodi:nodetypes="cccc" />
      <path
         style="fill:#ff0000;fill-opacity:1;stroke:none;stroke-width:0.465;stroke-dasharray:none;stroke-opacity:1;paint-order:markers stroke fill"
         d="m 100.25044,137.24567 c 1.01041,-0.21073 1.98461,-0.48179 3.03122,-0.63218 0.4308,0.048 0.6885,0.38457 1.03248,0.5773 0.35607,-0.23758 0.64593,-0.54613 1.10587,-0.64085 0.7564,0.005 1.53834,0.75751 2.31354,1.14414 l -3.27138,1.6875 c -1.40392,-0.71193 -2.85044,-1.29608 -4.21173,-2.13591 z"
         id="path105"
         sodipodi:nodetypes="ccccccc" />
      <path
         style="fill:#f4e3d7;fill-opacity:1;stroke:none;stroke-width:1.75748;stroke-dasharray:none;stroke-opacity:1;paint-order:markers stroke fill"
         d="m 406.84625,520.21109 c -0.72191,-0.40638 -1.33568,-0.78382 -2.57356,-1.58263 -1.55554,-1.0038 -2.10152,-1.32946 -2.90159,-1.73071 -1.02622,-0.51467 -2.05351,-0.81507 -2.78733,-0.81507 -0.65848,0 -1.69776,0.47986 -2.82079,1.30242 -0.38146,0.2794 -0.878,0.64142 -1.10343,0.80449 l -0.40987,0.29648 -0.40136,-0.27389 c -0.22075,-0.15063 -0.69089,-0.49074 -1.04475,-0.7558 -0.74795,-0.56025 -1.43144,-0.92321 -2.00162,-1.06294 -0.40202,-0.0985 -0.40874,-0.0983 -1.34119,0.0512 -1.43836,0.23059 -3.4501,0.64442 -6.38036,1.31248 -1.468,0.33469 -2.98379,0.67529 -3.36842,0.75689 -0.38464,0.0816 -0.73917,0.16972 -0.78785,0.19583 -0.1739,0.0933 -3.72427,-2.12832 -5.90678,-3.69607 -1.92882,-1.38552 -5.33999,-4.09086 -5.25958,-4.17128 0.0122,-0.0122 2.27262,0.007 5.02312,0.0428 7.10496,0.0923 16.20476,0.0353 27.7993,-0.17395 10.49435,-0.18943 12.94393,-0.2259 17.0918,-0.25445 l 4.58765,-0.0316 -0.5315,0.51304 c -2.21734,2.14034 -5.84001,4.67106 -10.18235,7.11317 -1.68508,0.94768 -4.31138,2.34944 -4.3766,2.33596 -0.008,-0.002 -0.1537,-0.0811 -0.32294,-0.17636 z"
         id="path106"
         transform="scale(0.26458333)" />
      <path
         style="fill:#ffffff;fill-opacity:1;stroke:none;stroke-width:0.465;stroke-dasharray:none;stroke-opacity:1;paint-order:markers stroke fill"
         id="path107"
         sodipodi:type="arc"
         sodipodi:cx="94.111938"
         sodipodi:cy="122.0182"
         sodipodi:rx="4.6054978"
         sodipodi:ry="1.5951983"
         sodipodi:start="0"
         sodipodi:end="6.221431"
         sodipodi:open="true"
         sodipodi:arc-type="arc"
         d="m 98.717436,122.0182 a 4.6054978,1.5951983 0 0 1 -4.534398,1.59501 4.6054978,1.5951983 0 0 1 -4.674402,-1.54576 4.6054978,1.5951983 0 0 1 4.390072,-1.64273 4.6054978,1.5951983 0 0 1 4.809949,1.49504" />
      <path
         style="fill:#ffffff;fill-opacity:1;stroke:none;stroke-width:0.465;stroke-dasharray:none;stroke-opacity:1;paint-order:markers stroke fill"
         id="path108"
         sodipodi:type="arc"
         sodipodi:cx="111.51984"
         sodipodi:cy="122.13663"
         sodipodi:rx="4.6054978"
         sodipodi:ry="1.5951983"
         sodipodi:start="0"
         sodipodi:end="6.221431"
         sodipodi:open="true"
         sodipodi:arc-type="arc"
         d="m 116.12533,122.13663 a 4.6054978,1.5951983 0 0 1 -4.53439,1.59501 4.6054978,1.5951983 0 0 1 -4.67441,-1.54577 4.6054978,1.5951983 0 0 1 4.39008,-1.64273 4.6054978,1.5951983 0 0 1 4.80995,1.49504" />
      <path
         style="fill:#ffffff;fill-opacity:1;stroke:none;stroke-width:0.465;stroke-dasharray:none;stroke-opacity:1;paint-order:markers stroke fill"
         id="path109"
         sodipodi:type="arc"
         sodipodi:cx="93.671051"
         sodipodi:cy="122.35855"
         sodipodi:rx="0.8881579"
         sodipodi:ry="0.74013162"
         sodipodi:start="0"
         sodipodi:end="6.2571599"
         sodipodi:open="true"
         sodipodi:arc-type="arc"
         d="m 94.559209,122.35855 a 0.8881579,0.74013162 0 0 1 -0.882379,0.74012 0.8881579,0.74013162 0 0 1 -0.893862,-0.73049 0.8881579,0.74013162 0 0 1 0.870748,-0.74962 0.8881579,0.74013162 0 0 1 0.905192,0.72073" />
      <path
         style="fill:#000000;fill-opacity:1;stroke:none;stroke-width:0.465;stroke-dasharray:none;stroke-opacity:1;paint-order:markers stroke fill"
         id="path110"
         sodipodi:type="arc"
         sodipodi:cx="94.192902"
         sodipodi:cy="122.58999"
         sodipodi:rx="1.538655"
         sodipodi:ry="0.96296781"
         sodipodi:start="0"
         sodipodi:end="6.2571599"
         sodipodi:open="true"
         sodipodi:arc-type="arc"
         d="m 95.731557,122.58999 a 1.538655,0.96296781 0 0 1 -1.528644,0.96295 1.538655,0.96296781 0 0 1 -1.548536,-0.95042 1.538655,0.96296781 0 0 1 1.508493,-0.97532 1.538655,0.96296781 0 0 1 1.568166,0.93773" />
      <path
         style="fill:#000000;fill-opacity:1;stroke:none;stroke-width:0.465;stroke-dasharray:none;stroke-opacity:1;paint-order:markers stroke fill"
         id="path111"
         sodipodi:type="arc"
         sodipodi:cx="111.30474"
         sodipodi:cy="122.76762"
         sodipodi:rx="1.538655"
         sodipodi:ry="0.96296781"
         sodipodi:start="0"
         sodipodi:end="6.2571599"
         sodipodi:open="true"
         sodipodi:arc-type="arc"
         d="m 112.8434,122.76762 a 1.538655,0.96296781 0 0 1 -1.52865,0.96294 1.538655,0.96296781 0 0 1 -1.54853,-0.95041 1.538655,0.96296781 0 0 1 1.50849,-0.97532 1.538655,0.96296781 0 0 1 1.56816,0.93773" />
      <path
         style="fill:#000000;fill-opacity:1;stroke:none;stroke-width:0.465;stroke-dasharray:none;stroke-opacity:1;paint-order:markers stroke fill"
         d="m 89.639739,115.82246 0.04187,2.42835 10.634511,2.67956 z"
         id="path112" />
      <path
         style="fill:#000000;fill-opacity:1;stroke:none;stroke-width:0.465;stroke-dasharray:none;stroke-opacity:1;paint-order:markers stroke fill"
         d="m 116.9543,115.64483 -0.0419,2.42835 -10.63451,2.67956 z"
         id="path113" />
      <path
         style="fill:#000000;fill-opacity:1;stroke:none;stroke-width:0.465;stroke-dasharray:none;stroke-opacity:1;paint-order:markers stroke fill"
         d="m 116.50398,167.89134 v 6.28022 h 2.42836 l -0.16747,-6.19649 z"
         id="path114" />
      <path
         style="fill:#000000;fill-opacity:1;stroke:none;stroke-width:0.465;stroke-dasharray:none;stroke-opacity:1;paint-order:markers stroke fill"
         d="m 119.43476,168.7287 0.0837,5.10792 1.59099,0.0837 -0.16747,-5.02418 z"
         id="path115" />
      <path
         style="fill:#000000;fill-opacity:1;stroke:none;stroke-width:0.465;stroke-dasharray:none;stroke-opacity:1;paint-order:markers stroke fill"
         d="m 121.50141,170.9326 v 2.84703 l 1.25605,0.0837 0.0837,-2.93077 z"
         id="path116" />
      <path
         style="fill:#000000;fill-opacity:1;stroke:none;stroke-width:0.465;stroke-dasharray:none;stroke-opacity:1;paint-order:markers stroke fill"
         d="m 155.90131,171.53289 -12.49342,18 -0.53289,-0.41447 12.67105,-17.76316 z"
         id="path117" />
      <path
         style="fill:#000000;fill-opacity:1;stroke:none;stroke-width:0.465;stroke-dasharray:none;stroke-opacity:1;paint-order:markers stroke fill"
         d="m 57.317518,171.45013 16.244847,18.71507 0.376812,-0.33494 -16.370451,-18.79881 z"
         id="path118" />
      <path
         style="fill:#deaa87;fill-opacity:1;stroke:none;stroke-width:0.465;stroke-dasharray:none;stroke-opacity:1;paint-order:markers stroke fill"
         d="m 96.547986,149.35886 8.541104,12.39298 9.04353,-12.8954 -0.0837,-1.00484 -17.668367,-0.0837 z"
         id="path119" />
      <path
         style="fill:#0000ff;fill-opacity:1;stroke:none;stroke-width:0.465;stroke-dasharray:none;stroke-opacity:1;paint-order:markers stroke fill"
         d="m 95.040732,149.97176 10.132098,13.98397 9.96462,-14.15144 -1.00483,-0.9211 -8.87606,12.72792 -8.708574,-12.30924 z"
         id="path120" />
    </g>
  </g>
</svg>
